<mxfile host="app.diagrams.net" modified="2022-09-05T10:11:00.114Z" agent="5.0 (Windows NT 10.0; Win64; x64) AppleWebKit/537.36 (KHTML, like Gecko) Chrome/105.0.0.0 Safari/537.36" etag="omngkhglPj3JjknWoQRM" version="20.2.7" type="github">
  <diagram id="C5RBs43oDa-KdzZeNtuy" name="Page-1">
    <mxGraphModel dx="1730" dy="912" grid="1" gridSize="10" guides="1" tooltips="1" connect="1" arrows="1" fold="1" page="1" pageScale="1" pageWidth="827" pageHeight="1169" math="0" shadow="0">
      <root>
        <mxCell id="WIyWlLk6GJQsqaUBKTNV-0" />
        <mxCell id="WIyWlLk6GJQsqaUBKTNV-1" parent="WIyWlLk6GJQsqaUBKTNV-0" />
        <mxCell id="EjKRookNta8IeRXA-p-u-1" style="edgeStyle=orthogonalEdgeStyle;rounded=0;orthogonalLoop=1;jettySize=auto;html=1;entryX=-0.019;entryY=0.61;entryDx=0;entryDy=0;entryPerimeter=0;" edge="1" parent="WIyWlLk6GJQsqaUBKTNV-1" source="EjKRookNta8IeRXA-p-u-0" target="EjKRookNta8IeRXA-p-u-2">
          <mxGeometry relative="1" as="geometry">
            <mxPoint x="330" y="160" as="targetPoint" />
            <Array as="points">
              <mxPoint x="200" y="117" />
            </Array>
          </mxGeometry>
        </mxCell>
        <mxCell id="EjKRookNta8IeRXA-p-u-0" value="start&amp;nbsp;" style="ellipse;whiteSpace=wrap;html=1;" vertex="1" parent="WIyWlLk6GJQsqaUBKTNV-1">
          <mxGeometry x="105" y="90" width="60" height="50" as="geometry" />
        </mxCell>
        <mxCell id="EjKRookNta8IeRXA-p-u-3" style="edgeStyle=orthogonalEdgeStyle;rounded=0;orthogonalLoop=1;jettySize=auto;html=1;entryX=0;entryY=0.5;entryDx=0;entryDy=0;" edge="1" parent="WIyWlLk6GJQsqaUBKTNV-1" source="EjKRookNta8IeRXA-p-u-2" target="EjKRookNta8IeRXA-p-u-4">
          <mxGeometry relative="1" as="geometry">
            <mxPoint x="590" y="160" as="targetPoint" />
          </mxGeometry>
        </mxCell>
        <mxCell id="EjKRookNta8IeRXA-p-u-2" value="setUp Form" style="rounded=1;whiteSpace=wrap;html=1;" vertex="1" parent="WIyWlLk6GJQsqaUBKTNV-1">
          <mxGeometry x="210" y="90" width="60" height="45" as="geometry" />
        </mxCell>
        <mxCell id="EjKRookNta8IeRXA-p-u-5" style="edgeStyle=orthogonalEdgeStyle;rounded=0;orthogonalLoop=1;jettySize=auto;html=1;entryX=0.571;entryY=0.027;entryDx=0;entryDy=0;entryPerimeter=0;" edge="1" parent="WIyWlLk6GJQsqaUBKTNV-1" source="EjKRookNta8IeRXA-p-u-4" target="EjKRookNta8IeRXA-p-u-6">
          <mxGeometry relative="1" as="geometry">
            <mxPoint x="792.2857375372024" y="140" as="targetPoint" />
            <Array as="points">
              <mxPoint x="658" y="110" />
            </Array>
          </mxGeometry>
        </mxCell>
        <mxCell id="EjKRookNta8IeRXA-p-u-4" value="ButtonStart_Click&amp;nbsp;&lt;br&gt;get the data form the form&amp;nbsp;" style="rounded=1;whiteSpace=wrap;html=1;" vertex="1" parent="WIyWlLk6GJQsqaUBKTNV-1">
          <mxGeometry x="382.5" y="77.5" width="180" height="70" as="geometry" />
        </mxCell>
        <mxCell id="EjKRookNta8IeRXA-p-u-8" style="edgeStyle=orthogonalEdgeStyle;rounded=0;orthogonalLoop=1;jettySize=auto;html=1;" edge="1" parent="WIyWlLk6GJQsqaUBKTNV-1" source="EjKRookNta8IeRXA-p-u-6" target="EjKRookNta8IeRXA-p-u-10">
          <mxGeometry relative="1" as="geometry">
            <mxPoint x="330" y="280" as="targetPoint" />
          </mxGeometry>
        </mxCell>
        <mxCell id="EjKRookNta8IeRXA-p-u-6" value="create the board&amp;nbsp;" style="rounded=1;whiteSpace=wrap;html=1;" vertex="1" parent="WIyWlLk6GJQsqaUBKTNV-1">
          <mxGeometry x="590" y="147.5" width="120" height="60" as="geometry" />
        </mxCell>
        <mxCell id="EjKRookNta8IeRXA-p-u-7" value="click the start&amp;nbsp;" style="text;html=1;strokeColor=none;fillColor=none;align=center;verticalAlign=middle;whiteSpace=wrap;rounded=0;" vertex="1" parent="WIyWlLk6GJQsqaUBKTNV-1">
          <mxGeometry x="305" y="110" width="60" height="30" as="geometry" />
        </mxCell>
        <mxCell id="EjKRookNta8IeRXA-p-u-12" value="" style="edgeStyle=orthogonalEdgeStyle;rounded=0;orthogonalLoop=1;jettySize=auto;html=1;" edge="1" parent="WIyWlLk6GJQsqaUBKTNV-1" source="EjKRookNta8IeRXA-p-u-10" target="EjKRookNta8IeRXA-p-u-11">
          <mxGeometry relative="1" as="geometry">
            <Array as="points">
              <mxPoint x="140" y="200" />
            </Array>
          </mxGeometry>
        </mxCell>
        <mxCell id="EjKRookNta8IeRXA-p-u-10" value="while playing&amp;nbsp;" style="rhombus;whiteSpace=wrap;html=1;" vertex="1" parent="WIyWlLk6GJQsqaUBKTNV-1">
          <mxGeometry x="382.5" y="160" width="150" height="80" as="geometry" />
        </mxCell>
        <mxCell id="EjKRookNta8IeRXA-p-u-19" value="" style="edgeStyle=orthogonalEdgeStyle;rounded=0;orthogonalLoop=1;jettySize=auto;html=1;" edge="1" parent="WIyWlLk6GJQsqaUBKTNV-1" source="EjKRookNta8IeRXA-p-u-11" target="EjKRookNta8IeRXA-p-u-18">
          <mxGeometry relative="1" as="geometry" />
        </mxCell>
        <mxCell id="EjKRookNta8IeRXA-p-u-11" value="get event click 1st&amp;nbsp;" style="ellipse;whiteSpace=wrap;html=1;" vertex="1" parent="WIyWlLk6GJQsqaUBKTNV-1">
          <mxGeometry x="50" y="250" width="120" height="60" as="geometry" />
        </mxCell>
        <mxCell id="EjKRookNta8IeRXA-p-u-27" style="edgeStyle=orthogonalEdgeStyle;rounded=0;orthogonalLoop=1;jettySize=auto;html=1;" edge="1" parent="WIyWlLk6GJQsqaUBKTNV-1" source="EjKRookNta8IeRXA-p-u-15" target="EjKRookNta8IeRXA-p-u-26">
          <mxGeometry relative="1" as="geometry">
            <mxPoint x="720" y="449.9999999999999" as="targetPoint" />
            <Array as="points">
              <mxPoint x="510" y="390" />
              <mxPoint x="510" y="440" />
              <mxPoint x="140" y="440" />
            </Array>
          </mxGeometry>
        </mxCell>
        <mxCell id="EjKRookNta8IeRXA-p-u-15" value="add to 2nd event handler&amp;nbsp;&amp;nbsp;" style="whiteSpace=wrap;html=1;" vertex="1" parent="WIyWlLk6GJQsqaUBKTNV-1">
          <mxGeometry x="365" y="360" width="120" height="60" as="geometry" />
        </mxCell>
        <mxCell id="EjKRookNta8IeRXA-p-u-21" value="" style="edgeStyle=orthogonalEdgeStyle;rounded=0;orthogonalLoop=1;jettySize=auto;html=1;" edge="1" parent="WIyWlLk6GJQsqaUBKTNV-1" source="EjKRookNta8IeRXA-p-u-18" target="EjKRookNta8IeRXA-p-u-20">
          <mxGeometry relative="1" as="geometry" />
        </mxCell>
        <mxCell id="EjKRookNta8IeRXA-p-u-18" value="get img from the game logic&amp;nbsp;" style="whiteSpace=wrap;html=1;" vertex="1" parent="WIyWlLk6GJQsqaUBKTNV-1">
          <mxGeometry x="50" y="360" width="120" height="60" as="geometry" />
        </mxCell>
        <mxCell id="EjKRookNta8IeRXA-p-u-23" value="" style="edgeStyle=orthogonalEdgeStyle;rounded=0;orthogonalLoop=1;jettySize=auto;html=1;" edge="1" parent="WIyWlLk6GJQsqaUBKTNV-1" source="EjKRookNta8IeRXA-p-u-20" target="EjKRookNta8IeRXA-p-u-15">
          <mxGeometry relative="1" as="geometry" />
        </mxCell>
        <mxCell id="EjKRookNta8IeRXA-p-u-20" value="set in form the img" style="whiteSpace=wrap;html=1;" vertex="1" parent="WIyWlLk6GJQsqaUBKTNV-1">
          <mxGeometry x="200" y="360" width="120" height="60" as="geometry" />
        </mxCell>
        <mxCell id="EjKRookNta8IeRXA-p-u-33" value="" style="edgeStyle=orthogonalEdgeStyle;rounded=0;orthogonalLoop=1;jettySize=auto;html=1;entryX=0.5;entryY=0;entryDx=0;entryDy=0;" edge="1" parent="WIyWlLk6GJQsqaUBKTNV-1" source="EjKRookNta8IeRXA-p-u-26" target="EjKRookNta8IeRXA-p-u-34">
          <mxGeometry relative="1" as="geometry">
            <mxPoint x="280" y="490.0000000000001" as="targetPoint" />
          </mxGeometry>
        </mxCell>
        <mxCell id="EjKRookNta8IeRXA-p-u-26" value="get event click 2nd" style="ellipse;whiteSpace=wrap;html=1;" vertex="1" parent="WIyWlLk6GJQsqaUBKTNV-1">
          <mxGeometry x="80" y="460" width="120" height="60" as="geometry" />
        </mxCell>
        <mxCell id="EjKRookNta8IeRXA-p-u-36" value="" style="edgeStyle=orthogonalEdgeStyle;rounded=0;orthogonalLoop=1;jettySize=auto;html=1;" edge="1" parent="WIyWlLk6GJQsqaUBKTNV-1" source="EjKRookNta8IeRXA-p-u-34" target="EjKRookNta8IeRXA-p-u-35">
          <mxGeometry relative="1" as="geometry" />
        </mxCell>
        <mxCell id="EjKRookNta8IeRXA-p-u-39" value="" style="edgeStyle=orthogonalEdgeStyle;rounded=0;orthogonalLoop=1;jettySize=auto;html=1;" edge="1" parent="WIyWlLk6GJQsqaUBKTNV-1" source="EjKRookNta8IeRXA-p-u-34" target="EjKRookNta8IeRXA-p-u-38">
          <mxGeometry relative="1" as="geometry">
            <Array as="points">
              <mxPoint x="250" y="600" />
              <mxPoint x="250" y="480" />
            </Array>
          </mxGeometry>
        </mxCell>
        <mxCell id="EjKRookNta8IeRXA-p-u-34" value="Check if there is a pair" style="rhombus;whiteSpace=wrap;html=1;" vertex="1" parent="WIyWlLk6GJQsqaUBKTNV-1">
          <mxGeometry x="75" y="560" width="130" height="80" as="geometry" />
        </mxCell>
        <mxCell id="EjKRookNta8IeRXA-p-u-44" value="" style="edgeStyle=orthogonalEdgeStyle;rounded=0;orthogonalLoop=1;jettySize=auto;html=1;" edge="1" parent="WIyWlLk6GJQsqaUBKTNV-1" source="EjKRookNta8IeRXA-p-u-35" target="EjKRookNta8IeRXA-p-u-43">
          <mxGeometry relative="1" as="geometry">
            <Array as="points">
              <mxPoint x="525" y="590" />
            </Array>
          </mxGeometry>
        </mxCell>
        <mxCell id="EjKRookNta8IeRXA-p-u-35" value="replace the currently-Playing-Player" style="whiteSpace=wrap;html=1;" vertex="1" parent="WIyWlLk6GJQsqaUBKTNV-1">
          <mxGeometry x="305" y="570" width="145" height="60" as="geometry" />
        </mxCell>
        <mxCell id="EjKRookNta8IeRXA-p-u-37" value="no" style="text;html=1;align=center;verticalAlign=middle;resizable=0;points=[];autosize=1;strokeColor=none;fillColor=none;" vertex="1" parent="WIyWlLk6GJQsqaUBKTNV-1">
          <mxGeometry x="260" y="570" width="40" height="30" as="geometry" />
        </mxCell>
        <mxCell id="EjKRookNta8IeRXA-p-u-45" value="" style="edgeStyle=orthogonalEdgeStyle;rounded=0;orthogonalLoop=1;jettySize=auto;html=1;" edge="1" parent="WIyWlLk6GJQsqaUBKTNV-1" source="EjKRookNta8IeRXA-p-u-38" target="EjKRookNta8IeRXA-p-u-43">
          <mxGeometry relative="1" as="geometry">
            <Array as="points">
              <mxPoint x="503" y="590" />
            </Array>
          </mxGeometry>
        </mxCell>
        <mxCell id="EjKRookNta8IeRXA-p-u-38" value="currently-Playing-Player&lt;br&gt;IncreaseScore" style="whiteSpace=wrap;html=1;" vertex="1" parent="WIyWlLk6GJQsqaUBKTNV-1">
          <mxGeometry x="340" y="460" width="120" height="60" as="geometry" />
        </mxCell>
        <mxCell id="EjKRookNta8IeRXA-p-u-40" value="yes" style="text;html=1;strokeColor=none;fillColor=none;align=center;verticalAlign=middle;whiteSpace=wrap;rounded=0;" vertex="1" parent="WIyWlLk6GJQsqaUBKTNV-1">
          <mxGeometry x="290" y="460" width="60" height="30" as="geometry" />
        </mxCell>
        <mxCell id="EjKRookNta8IeRXA-p-u-47" value="" style="edgeStyle=orthogonalEdgeStyle;rounded=0;orthogonalLoop=1;jettySize=auto;html=1;" edge="1" parent="WIyWlLk6GJQsqaUBKTNV-1" source="EjKRookNta8IeRXA-p-u-43" target="EjKRookNta8IeRXA-p-u-46">
          <mxGeometry relative="1" as="geometry" />
        </mxCell>
        <mxCell id="EjKRookNta8IeRXA-p-u-51" value="" style="edgeStyle=orthogonalEdgeStyle;rounded=0;orthogonalLoop=1;jettySize=auto;html=1;entryX=0.5;entryY=0;entryDx=0;entryDy=0;" edge="1" parent="WIyWlLk6GJQsqaUBKTNV-1" source="EjKRookNta8IeRXA-p-u-43" target="EjKRookNta8IeRXA-p-u-50">
          <mxGeometry relative="1" as="geometry">
            <Array as="points">
              <mxPoint x="610" y="680" />
              <mxPoint x="560" y="680" />
            </Array>
          </mxGeometry>
        </mxCell>
        <mxCell id="EjKRookNta8IeRXA-p-u-43" value="Check for more moves" style="rhombus;whiteSpace=wrap;html=1;" vertex="1" parent="WIyWlLk6GJQsqaUBKTNV-1">
          <mxGeometry x="550" y="550" width="130" height="80" as="geometry" />
        </mxCell>
        <mxCell id="EjKRookNta8IeRXA-p-u-57" style="edgeStyle=orthogonalEdgeStyle;rounded=0;orthogonalLoop=1;jettySize=auto;html=1;entryX=0.867;entryY=0.625;entryDx=0;entryDy=0;entryPerimeter=0;" edge="1" parent="WIyWlLk6GJQsqaUBKTNV-1" source="EjKRookNta8IeRXA-p-u-46" target="EjKRookNta8IeRXA-p-u-10">
          <mxGeometry relative="1" as="geometry">
            <mxPoint x="360" y="744.9999999999998" as="targetPoint" />
            <Array as="points">
              <mxPoint x="610" y="280" />
              <mxPoint x="580" y="280" />
              <mxPoint x="580" y="210" />
            </Array>
          </mxGeometry>
        </mxCell>
        <mxCell id="EjKRookNta8IeRXA-p-u-46" value="&lt;div&gt;&amp;nbsp; &amp;nbsp; &amp;nbsp; &amp;nbsp; &amp;nbsp; &amp;nbsp; &amp;nbsp; &amp;nbsp; &amp;nbsp; &amp;nbsp; m_PlayerChois.Clear()&lt;br&gt;add&amp;nbsp;&lt;/div&gt;event click 1st&lt;div&gt;&lt;br&gt;&lt;/div&gt;" style="whiteSpace=wrap;html=1;" vertex="1" parent="WIyWlLk6GJQsqaUBKTNV-1">
          <mxGeometry x="532.5" y="420" width="165" height="60" as="geometry" />
        </mxCell>
        <mxCell id="EjKRookNta8IeRXA-p-u-48" value="yes" style="text;html=1;align=center;verticalAlign=middle;resizable=0;points=[];autosize=1;strokeColor=none;fillColor=none;" vertex="1" parent="WIyWlLk6GJQsqaUBKTNV-1">
          <mxGeometry x="620" y="510" width="40" height="30" as="geometry" />
        </mxCell>
        <mxCell id="EjKRookNta8IeRXA-p-u-53" value="" style="edgeStyle=orthogonalEdgeStyle;rounded=0;orthogonalLoop=1;jettySize=auto;html=1;entryX=0.5;entryY=0;entryDx=0;entryDy=0;" edge="1" parent="WIyWlLk6GJQsqaUBKTNV-1" source="EjKRookNta8IeRXA-p-u-50" target="EjKRookNta8IeRXA-p-u-64">
          <mxGeometry relative="1" as="geometry">
            <mxPoint x="720" y="800" as="targetPoint" />
            <Array as="points">
              <mxPoint x="680" y="780" />
              <mxPoint x="680" y="780" />
            </Array>
          </mxGeometry>
        </mxCell>
        <mxCell id="EjKRookNta8IeRXA-p-u-50" value="Display a message of who won" style="whiteSpace=wrap;html=1;" vertex="1" parent="WIyWlLk6GJQsqaUBKTNV-1">
          <mxGeometry x="500" y="690" width="120" height="60" as="geometry" />
        </mxCell>
        <mxCell id="EjKRookNta8IeRXA-p-u-62" value="" style="edgeStyle=orthogonalEdgeStyle;rounded=0;orthogonalLoop=1;jettySize=auto;html=1;" edge="1" parent="WIyWlLk6GJQsqaUBKTNV-1" target="EjKRookNta8IeRXA-p-u-61">
          <mxGeometry relative="1" as="geometry">
            <mxPoint x="660" y="830" as="sourcePoint" />
            <Array as="points">
              <mxPoint x="640" y="830" />
              <mxPoint x="640" y="830" />
            </Array>
          </mxGeometry>
        </mxCell>
        <mxCell id="EjKRookNta8IeRXA-p-u-56" value="no" style="text;html=1;align=center;verticalAlign=middle;resizable=0;points=[];autosize=1;strokeColor=none;fillColor=none;" vertex="1" parent="WIyWlLk6GJQsqaUBKTNV-1">
          <mxGeometry x="570" y="640" width="40" height="30" as="geometry" />
        </mxCell>
        <mxCell id="EjKRookNta8IeRXA-p-u-61" value="Exit" style="ellipse;whiteSpace=wrap;html=1;" vertex="1" parent="WIyWlLk6GJQsqaUBKTNV-1">
          <mxGeometry x="460" y="800" width="120" height="60" as="geometry" />
        </mxCell>
        <mxCell id="EjKRookNta8IeRXA-p-u-63" value="no" style="text;html=1;align=center;verticalAlign=middle;resizable=0;points=[];autosize=1;strokeColor=none;fillColor=none;" vertex="1" parent="WIyWlLk6GJQsqaUBKTNV-1">
          <mxGeometry x="590" y="810" width="40" height="30" as="geometry" />
        </mxCell>
        <mxCell id="EjKRookNta8IeRXA-p-u-67" value="" style="edgeStyle=orthogonalEdgeStyle;rounded=0;orthogonalLoop=1;jettySize=auto;html=1;entryX=0.75;entryY=1;entryDx=0;entryDy=0;" edge="1" parent="WIyWlLk6GJQsqaUBKTNV-1" source="EjKRookNta8IeRXA-p-u-64" target="EjKRookNta8IeRXA-p-u-66">
          <mxGeometry relative="1" as="geometry">
            <mxPoint x="760" y="430" as="targetPoint" />
            <Array as="points">
              <mxPoint x="760" y="830" />
              <mxPoint x="760" y="350" />
            </Array>
          </mxGeometry>
        </mxCell>
        <mxCell id="EjKRookNta8IeRXA-p-u-64" value="Ask if they want another game" style="rhombus;whiteSpace=wrap;html=1;" vertex="1" parent="WIyWlLk6GJQsqaUBKTNV-1">
          <mxGeometry x="620" y="765" width="120" height="80" as="geometry" />
        </mxCell>
        <mxCell id="EjKRookNta8IeRXA-p-u-69" value="" style="edgeStyle=orthogonalEdgeStyle;rounded=0;orthogonalLoop=1;jettySize=auto;html=1;entryX=0.5;entryY=0;entryDx=0;entryDy=0;" edge="1" parent="WIyWlLk6GJQsqaUBKTNV-1" source="EjKRookNta8IeRXA-p-u-66" target="EjKRookNta8IeRXA-p-u-4">
          <mxGeometry relative="1" as="geometry">
            <mxPoint x="470" y="50" as="targetPoint" />
            <Array as="points">
              <mxPoint x="730" y="77" />
            </Array>
          </mxGeometry>
        </mxCell>
        <mxCell id="EjKRookNta8IeRXA-p-u-66" value="setUp Form" style="whiteSpace=wrap;html=1;" vertex="1" parent="WIyWlLk6GJQsqaUBKTNV-1">
          <mxGeometry x="670" y="270" width="120" height="60" as="geometry" />
        </mxCell>
        <mxCell id="EjKRookNta8IeRXA-p-u-68" value="yes" style="text;html=1;align=center;verticalAlign=middle;resizable=0;points=[];autosize=1;strokeColor=none;fillColor=none;" vertex="1" parent="WIyWlLk6GJQsqaUBKTNV-1">
          <mxGeometry x="720" y="740" width="40" height="30" as="geometry" />
        </mxCell>
      </root>
    </mxGraphModel>
  </diagram>
</mxfile>
